<?xml version="1.0" encoding="UTF-8"?> <svg xmlns="http://www.w3.org/2000/svg" id="Ebene_2" viewBox="0 0 186.43 215.27" width="186.43" height="215.27"><g id="Ebene_1-2"><g><polygon points="93.21 0 0 53.82 0 161.45 93.21 215.27 186.43 161.45 186.43 53.82 93.21 0" style="fill:#ab1873;"></polygon><g><path d="M26.77,94.82l.19,.19v26.16l-.19,.19h-4.02l-.19-.19v-.57c-1.18,.76-2.84,1.33-4.55,1.33-5.31,0-9.33-4.21-9.33-9.48s4.02-9.48,9.33-9.48c1.71,0,3.37,.57,4.55,1.33v-9.29l.19-.19h4.02Zm-4.21,14.44c-1.25-1.29-2.77-2.05-4.4-2.05-2.84,0-4.97,2.24-4.97,5.23s2.12,5.23,4.97,5.23c1.63,0,3.15-.57,4.4-2.05v-6.37Z" style="fill:#fff;"></path><path d="M34.81,95.96l2.77,2.73v.38l-2.77,2.77h-.38l-2.77-2.77v-.38l2.77-2.73h.38Zm1.82,7.58l.19,.19v17.44l-.19,.19h-4.02l-.19-.19v-17.44l.19-.19h4.02Z" style="fill:#fff;"></path><path d="M57.94,103.73v3.72l-.19,.19h-1.97c.27,.76,.46,1.52,.46,2.35,0,3.94-3,7.01-7.2,7.01-.76,0-1.52-.15-2.09-.42-.19,.19-.38,.38-.38,.76,0,2.09,11.64,.83,11.64,8.19,0,3.56-3.49,5.88-8.8,5.88s-9.55-1.44-9.55-5.61c0-2.09,1.55-3.87,3.83-5.23-.76-.57-1.44-1.4-1.44-2.73,0-1.1,.57-2.16,1.63-3-1.37-1.33-2.05-2.84-2.05-4.85,0-3.87,3.22-7.01,7.2-7.01,.99,0,1.97,.23,2.84,.57h5.88l.19,.19Zm-13.53,21.76c0,1.25,1.44,2.01,5,2.01,2.92,0,4.25-.95,4.25-2.12,0-2.24-4.81-2.84-6.71-3.49-1.21,.76-2.54,2.05-2.54,3.6Zm1.59-15.51c0,1.71,1.33,3.11,3.03,3.11s3.03-1.4,3.03-3.11-1.33-3.11-3.03-3.11-3.03,1.4-3.03,3.11Z" style="fill:#fff;"></path><path d="M63.62,95.96l2.77,2.73v.38l-2.77,2.77h-.38l-2.77-2.77v-.38l2.77-2.73h.38Zm1.82,7.58l.19,.19v17.44l-.19,.19h-4.02l-.19-.19v-17.44l.19-.19h4.02Z" style="fill:#fff;"></path><path d="M76.59,98.99l.19,.23v4.32h6.82l.19,.19v4.06l-.19,.19h-6.82v5.69c0,3.03,1.33,4.02,2.84,4.02,1.06,0,2.5-.27,3.98-1.33l.19,.19v4.25c-1.02,.61-2.96,1.14-4.17,1.14-4.82,0-7.28-2.96-7.28-7.89v-6.07h-3.03l-.19-.19v-4.06l.19-.19h3.03v-4.36l.19-.19h4.06Z" style="fill:#fff;"></path><path d="M88.72,104.11c1.14-.57,2.65-1.14,4.74-1.14,4.17,0,7.66,2.46,7.66,7.58v10.62l-.19,.19h-4.06l-.19-.19v-.57c-1.4,.95-3.03,1.33-4.36,1.33-3.07,0-6.26-1.52-6.26-5.27,0-5,5.19-6.56,10.62-6.86,0-1.59-1.33-2.84-3.41-2.84s-3.94,.68-6.22,2.2l-.19-.19,1.86-4.85Zm7.96,9.06c-3.98,.19-6.07,1.36-6.07,3.03,0,1.18,.95,1.74,2.24,1.74s2.5-.38,3.83-1.14v-3.64Z" style="fill:#fff;"></path><path d="M109.99,94.82l.19,.19v19.6c0,2.12,.95,3.07,2.39,3.07,1.21,0,2.35-.38,3.49-1.52l.19,.19v4.44c-.95,.57-2.43,1.14-3.75,1.14-4.36,0-6.71-2.69-6.71-7.05v-19.87l.19-.19h4.02Z" style="fill:#fff;"></path><path d="M128.83,105.25c.87-.49,2.01-.95,3.72-.95,3.45,0,5.91,2.05,5.91,6.1v2.81c0,2.27,.61,2.84,1.67,2.84s1.9-1.29,1.9-4.55c0-5.19-4.13-9.29-9.48-9.29s-9.48,4.47-9.48,10.05,4.28,10.05,9.48,10.05c1.74,0,3.18-.3,4.82-1.33h.38l1.55,3.3c-2.46,1.44-4.55,1.82-6.75,1.82-7.39,0-13.65-5.88-13.65-13.84s6.26-13.84,13.65-13.84,13.65,5.88,13.65,13.08c0,5.46-3.03,8.27-6.22,8.27-1.71,0-2.96-.19-4.28-1.44-1.14,.95-2.65,1.44-3.9,1.44-2.39,0-5.42-1.36-5.42-4.74,0-3.72,4.06-5.04,8.15-5.42,0-1.29-.99-1.78-2.05-1.78-1.67,0-3.15,.38-5.12,1.78l-.19-.19,1.67-4.17Zm5.69,7.62c-3.15,.19-4.25,1.21-4.25,2.16s.64,1.29,1.52,1.29,1.78-.3,2.73-.87v-2.58Z" style="fill:#fff;"></path><path d="M155.29,94.82l.38,.19,8.8,10.62,8.76-10.62,.38-.19h3.94l.19,.19v26.16l-.19,.19h-4.06l-.19-.19v-19.64l-8.64,10.43h-.38l-8.68-10.43v19.64l-.19,.19h-4.02l-.19-.19v-26.16l.19-.19h3.9Z" style="fill:#fff;"></path></g></g></g></svg> 